<svg enable-background="new 0 0 48.3 23.3" height="23.3" viewBox="0 0 48.3 23.3" width="48.3" xmlns="http://www.w3.org/2000/svg"><g fill="#fff"><path d="m6.5 6.2v2c-.7 1.3-1.6 2.5-2.6 3.8h3v1.7c-.4 1.8-.9 3.3-1.4 4.5l.5.5c.8.8 1.6 1.3 2.3 1.6s1.8.4 3.1.5h4.7c1.8 0 4.1-.1 7-.2l-.5 2.4h-6.1c-1.7 0-3.4 0-5.1-.1-1.7 0-3-.2-3.9-.6-1-.4-2-1.1-2.8-1.9-.2-.2-.3-.3-.6-.3-.5 0-1.2 1.1-2.2 3.2l-1.9-1.7c1.1-2.2 2.2-3.5 3.2-3.9.5-1.1.9-2.3 1.2-3.5h-3.5v-1.9c1.1-1.4 2-2.6 2.8-3.7h-3.3v-2.4zm0-2.4-1.7 1.7c-.9-1.1-2.2-2.3-3.8-3.6l1.7-1.6c1.5 1.2 2.7 2.3 3.8 3.5zm7.3 6.2c.1-1 .2-2 .2-3.1h-5.3v-2.3h2.8c-.7-1.2-1.3-2.3-2-3.2l2.3-1.1c.7 1.1 1.4 2.3 2.1 3.6l-1.4.7h3.6c.7-1.4 1.3-3 1.9-4.6l2.4.9c-.5 1.4-1.1 2.6-1.7 3.7h2.7v2.3h-5.1c-.1 1.2-.1 2.2-.2 3.1h6.1v2.4h-6.5c-.7 3.1-2.7 5.7-6 7.8l-1.6-2c2.6-1.5 4.3-3.4 5-5.7h-5.2v-2.5zm9 8.2-1.8 2c-1.7-1.8-3.5-3.5-5.3-4.8l1.5-1.7c2.1 1.3 3.9 2.8 5.6 4.5z"/><path d="m44.4 2h2.6v9.1h-7.6v8.4h6.2v-6.5h2.6v10.1h-2.6v-1.1h-15.1v1.1h-2.6v-10.1h2.6v6.5h6.2v-8.4h-7.6v-9.1h2.6v6.6h5v-8.4h2.7v8.4h5z"/></g></svg>