<svg enable-background="new 0 0 51.1 35.8" height="35.8" viewBox="0 0 51.1 35.8" width="51.1" xmlns="http://www.w3.org/2000/svg"><g fill="none" stroke="#fff" stroke-linecap="round" stroke-miterlimit="10"><path d="m33.4 24.5 5.4-6.1c.3-.3.3-.8 0-1.1l-5.4-6.6v-8.7c0-.7-.7-1.1-1.3-.8l-30.5 15.9c-.7.3-.7 1.3 0 1.7l30.4 15.9c.6.3 1.3-.2 1.3-.8v-9.4z" stroke-width="2.194"/><path d="m33.4 24.5-5.7-1.9-11.2-4.3c-.4-.1-.4-.7 0-.9l16.9-6.7" stroke-width="1.6"/><path d="m16.5 17.9h28.9" stroke-width="2.194"/><path d="m34.8 22.9h6.1" stroke-linejoin="round" stroke-width="2.194"/></g><circle cx="45.3" cy="22.9" fill="#fff" r="1.3"/><circle cx="49.8" cy="17.9" fill="#fff" r="1.3"/></svg>